<svg width="30" height="24" viewBox="0 0 30 24" fill="none" xmlns="http://www.w3.org/2000/svg">
<rect width="4" height="20" rx="2" transform="matrix(1 0 0 -1 0 22)" fill="black"/>
<mask id="mask0_296_18" style="mask-type:alpha" maskUnits="userSpaceOnUse" x="6" y="0" width="24" height="24">
<rect width="24" height="24" transform="matrix(-4.37114e-08 1 1 4.37114e-08 6 0)" fill="#D9D9D9"/>
</mask>
<g mask="url(#mask0_296_18)">
<path d="M30 12C30 11.2406 29.3844 10.625 28.625 10.625L12.2594 10.625L17.987 4.9956C18.5451 4.44715 18.5489 3.54894 17.9957 2.99568V2.99568C17.4458 2.44578 16.5542 2.44578 16.0043 2.99568L7.74074 11.2593C7.33164 11.6684 7.33164 12.3316 7.74074 12.7407L16 21C16.5523 21.5523 17.4477 21.5523 18 21V21V21C18.5416 20.4472 18.5338 19.5605 17.9827 19.0172L12.2594 13.375L28.625 13.375C29.3844 13.375 30 12.7594 30 12V12Z" fill="black"/>
</g>
</svg>
