<svg width="40" height="40" viewBox="0 0 40 40" fill="none" xmlns="http://www.w3.org/2000/svg">
<g clip-path="url(#clip0_160_279)">
<path d="M7.08334 3.22406e-06H32.9167C33.8471 -0.000896211 34.7686 0.186404 35.6284 0.551183C36.4882 0.915963 37.2694 1.45106 37.9273 2.12585C38.5852 2.80065 39.1069 3.60189 39.4626 4.48372C39.8183 5.36555 40.0009 6.31066 40 7.26496V32.735C40.0009 33.6893 39.8183 34.6344 39.4626 35.5163C39.1069 36.3981 38.5852 37.1994 37.9273 37.8741C37.2694 38.5489 36.4882 39.084 35.6284 39.4488C34.7686 39.8136 33.8471 40.0009 32.9167 40H7.08334C6.15289 40.0009 5.23141 39.8136 4.37162 39.4488C3.51184 39.084 2.73063 38.5489 2.07271 37.8741C1.41478 37.1994 0.893064 36.3981 0.537404 35.5163C0.181743 34.6344 -0.000873806 33.6893 3.14346e-06 32.735V7.26496C-0.000873806 6.31066 0.181743 5.36555 0.537404 4.48372C0.893064 3.60189 1.41478 2.80065 2.07271 2.12585C2.73063 1.45106 3.51184 0.915963 4.37162 0.551183C5.23141 0.186404 6.15289 -0.000896211 7.08334 3.22406e-06Z" fill="#000B1D"/>
<path d="M16.1667 32.2C18.4679 32.2 20.3333 30.3346 20.3333 28.0334V23.8667H16.1667C13.8655 23.8667 12 25.7322 12 28.0334C12 30.3346 13.8655 32.2 16.1667 32.2Z" fill="#0ACF83"/>
<path d="M12 19.6999C12 17.3987 13.8655 15.5332 16.1667 15.5332H20.3333V23.8665H16.1667C13.8655 23.8665 12 22.0011 12 19.6999Z" fill="#A259FF"/>
<path d="M12 11.3666C12 9.06543 13.8655 7.19995 16.1667 7.19995H20.3333V15.5333H16.1667C13.8655 15.5333 12 13.6678 12 11.3666Z" fill="#F24E1E"/>
<path d="M20.333 7.19995H24.4997C26.8009 7.19995 28.6663 9.06543 28.6663 11.3666C28.6663 13.6678 26.8009 15.5333 24.4997 15.5333H20.333V7.19995Z" fill="#FF7262"/>
<path d="M28.6663 19.6999C28.6663 22.0011 26.8009 23.8665 24.4997 23.8665C22.1985 23.8665 20.333 22.0011 20.333 19.6999C20.333 17.3987 22.1985 15.5332 24.4997 15.5332C26.8009 15.5332 28.6663 17.3987 28.6663 19.6999Z" fill="#1ABCFE"/>
</g>
<defs>
<clipPath id="clip0_160_279">
<rect width="40" height="40" fill="white"/>
</clipPath>
</defs>
</svg>
