<svg width="31" height="24" viewBox="0 0 31 24" fill="none" xmlns="http://www.w3.org/2000/svg">
<rect x="30.25" y="23" width="4" height="20" rx="2" transform="rotate(180 30.25 23)" fill="black"/>
<mask id="mask0_245_823" style="mask-type:alpha" maskUnits="userSpaceOnUse" x="0" y="0" width="25" height="24">
<rect x="24.25" width="24" height="24" transform="rotate(90 24.25 0)" fill="#D9D9D9"/>
</mask>
<g mask="url(#mask0_245_823)">
<path d="M0.25 13C0.25 12.2406 0.865609 11.625 1.625 11.625L17.9906 11.625L12.263 5.9956C11.7049 5.44715 11.7011 4.54894 12.2543 3.99568C12.8042 3.44578 13.6958 3.44578 14.2457 3.99568L22.5093 12.2593C22.9184 12.6684 22.9184 13.3316 22.5093 13.7407L14.25 22C13.6977 22.5523 12.8023 22.5523 12.25 22C11.7084 21.4472 11.7162 20.5605 12.2673 20.0172L17.9906 14.375L1.625 14.375C0.865611 14.375 0.25 13.7594 0.25 13Z" fill="black"/>
</g>
</svg>
