<svg width="40" height="40" viewBox="0 0 40 40" fill="none" xmlns="http://www.w3.org/2000/svg">
<path d="M33 0H7C3.13401 0 0 3.13401 0 7V33C0 36.866 3.13401 40 7 40H33C36.866 40 40 36.866 40 33V7C40 3.13401 36.866 0 33 0Z" fill="#2E0501"/>
<path d="M20.3318 24.4239H14.3131L12.8085 28.9913C12.7912 29.1304 12.6961 29.2 12.5231 29.2H9.79917C9.62622 29.2 9.56568 29.1131 9.61757 28.9391L15.0136 13.4361C15.1346 13.1751 15.2125 12.6879 15.2471 11.9745C15.2471 11.8701 15.3076 11.8179 15.4287 11.8179H19.1643C19.2508 11.8179 19.32 11.8614 19.3719 11.9484L25.3905 28.9652C25.4424 29.1217 25.3905 29.2 25.2349 29.2H22.1737C22.0526 29.2 21.9661 29.1391 21.9142 29.0174L20.3318 24.4239ZM14.9876 21.8922H19.6573C19.5881 21.6487 19.2249 20.5438 18.5677 18.5776C17.9278 16.5941 17.504 15.2369 17.2965 14.5061H17.2706C17.063 15.3935 16.302 17.8556 14.9876 21.8922Z" fill="#F2A032"/>
<path d="M27.0012 28.9652V16.6985C27.0012 16.5593 27.0703 16.4897 27.2087 16.4897H30.0883C30.2267 16.4897 30.2958 16.5593 30.2958 16.6985V28.9913C30.2958 29.1304 30.2267 29.2 30.0883 29.2H27.2346C27.079 29.2 27.0012 29.1217 27.0012 28.9652ZM29.9326 13.8537C29.6213 14.1669 29.1976 14.3235 28.6615 14.3235C28.1253 14.3235 27.7016 14.1669 27.3903 13.8537C27.079 13.5405 26.9233 13.1142 26.9233 12.5748C26.9233 12.0528 27.0876 11.6265 27.4162 11.2959C27.7448 10.9653 28.1686 10.8 28.6874 10.8C29.2063 10.8 29.6213 10.9653 29.9326 11.2959C30.244 11.6265 30.3996 12.0528 30.3996 12.5748C30.3996 13.1142 30.244 13.5405 29.9326 13.8537Z" fill="#F2A032"/>
</svg>
