<svg width="31" height="24" viewBox="0 0 31 24" fill="none" xmlns="http://www.w3.org/2000/svg">
<rect x="30.25" y="22" width="4" height="20" rx="2" transform="rotate(180 30.25 22)" fill="black"/>
<mask id="mask0_296_17" style="mask-type:alpha" maskUnits="userSpaceOnUse" x="0" y="0" width="25" height="24">
<rect x="24.25" width="24" height="24" transform="rotate(90 24.25 0)" fill="#D9D9D9"/>
</mask>
<g mask="url(#mask0_296_17)">
<path d="M0.25 12C0.25 11.2406 0.865609 10.625 1.625 10.625L17.9906 10.625L12.263 4.9956C11.7049 4.44715 11.7011 3.54894 12.2543 2.99568C12.8042 2.44578 13.6958 2.44578 14.2457 2.99568L22.5093 11.2593C22.9184 11.6684 22.9184 12.3316 22.5093 12.7407L14.25 21C13.6977 21.5523 12.8023 21.5523 12.25 21C11.7084 20.4472 11.7162 19.5605 12.2673 19.0172L17.9906 13.375L1.625 13.375C0.865611 13.375 0.25 12.7594 0.25 12Z" fill="black"/>
</g>
</svg>
