<svg width="40" height="40" viewBox="0 0 40 40" fill="none" xmlns="http://www.w3.org/2000/svg">
<path d="M33 0H7C3.13401 0 0 3.13401 0 7V33C0 36.866 3.13401 40 7 40H33C36.866 40 40 36.866 40 33V7C40 3.13401 36.866 0 33 0Z" fill="#001E36"/>
<path d="M9 28.3587V11.4336C9 11.3124 9.06066 11.2519 9.18199 11.2519C10.4993 11.2173 12.1718 11.2 14.1997 11.2C16.5916 11.2 18.3422 11.7364 19.4515 12.8094C20.5781 13.8824 21.1414 15.2062 21.1414 16.7811C21.1414 18.7366 20.4481 20.1903 19.0615 21.1421C17.6749 22.094 15.933 22.5699 13.8357 22.5699H12.3018V28.3327C12.3018 28.4711 12.2325 28.5404 12.0938 28.5404H9.20799C9.06933 28.5404 9 28.4798 9 28.3587ZM12.3018 13.692V20.0778C12.5445 20.1124 13.1078 20.1297 13.9917 20.1297C15.153 20.1297 16.089 19.8788 16.7996 19.3769C17.5276 18.8578 17.8915 18.0184 17.8915 16.8589C17.8915 15.8379 17.5709 15.0505 16.9296 14.4967C16.3056 13.9429 15.3957 13.666 14.1997 13.666C13.9051 13.666 13.6104 13.6747 13.3158 13.692C13.0385 13.692 12.8045 13.692 12.6138 13.692C12.4405 13.692 12.3365 13.692 12.3018 13.692Z" fill="#31A8FE"/>
<path d="M30.212 18.8837C29.2414 18.278 28.2275 17.9752 27.1702 17.9752C26.5636 17.9752 26.1129 18.0877 25.8183 18.3126C25.541 18.5376 25.4023 18.8059 25.4023 19.1174C25.4023 19.4289 25.5236 19.7058 25.7663 19.948C26.0089 20.173 26.5202 20.4412 27.3002 20.7528C28.7388 21.3065 29.7441 21.8949 30.316 22.5179C30.9053 23.1236 31.2 23.9111 31.2 24.8802C31.2 26.057 30.7494 27.0088 29.8481 27.7356C28.9641 28.4452 27.7595 28.8 26.2343 28.8C24.709 28.8 23.4611 28.5231 22.4905 27.9693C22.3865 27.9347 22.3345 27.8481 22.3345 27.7097V25.2955C22.3345 25.2263 22.3518 25.183 22.3865 25.1657C22.4385 25.1311 22.4818 25.1311 22.5165 25.1657C23.6431 25.9964 24.8477 26.4118 26.1303 26.4118C26.7369 26.4118 27.1962 26.3079 27.5082 26.1002C27.8375 25.8753 28.0022 25.5897 28.0022 25.2436C28.0022 24.8802 27.8722 24.5773 27.6122 24.3351C27.3522 24.0755 26.8409 23.7986 26.0783 23.5044C24.6917 22.9679 23.7211 22.3968 23.1664 21.7911C22.6291 21.1681 22.3605 20.3893 22.3605 19.4548C22.3605 18.3819 22.7678 17.482 23.5824 16.7551C24.397 16.0283 25.5583 15.6648 27.0662 15.6648C28.4701 15.6648 29.5534 15.8552 30.316 16.2359C30.4027 16.2879 30.446 16.4003 30.446 16.5734V18.728C30.446 18.9356 30.368 18.9876 30.212 18.8837Z" fill="#31A8FE"/>
</svg>
