<svg width="794" height="73" viewBox="0 0 794 73" fill="none" xmlns="http://www.w3.org/2000/svg">
<path d="M20.9766 72L0.175781 1.29688H20.8789L30.8398 45.5352H31.4258L43.0469 1.29688H59.4531L71.1719 45.7305H71.7578L81.7188 1.29688H102.422L81.6211 72H63.75L51.543 31.5703H50.957L38.75 72H20.9766ZM108.77 72V1.29688H159.258V16.3359H127.324V29.1289H156.621V44.168H127.324V56.9609H159.16V72H108.77ZM169.023 72V1.29688H199.297C215.41 1.29688 223.857 8.2793 223.906 19.0703C223.857 26.8828 218.389 32.8398 210.332 34.5V35.1836C219.268 35.4766 226.641 41.9707 226.641 52.0781C226.641 63.6016 217.266 72 201.836 72H169.023ZM187.578 57.0586H197.051C203.74 57.1074 207.012 54.5195 207.012 49.7344C207.012 44.6074 203.301 41.6289 197.344 41.6289H187.578V57.0586ZM187.578 30.0078H195.879C201.104 30.0078 204.766 27.4688 204.766 22.9766C204.766 18.4844 201.201 15.9453 196.172 15.9453H187.578V30.0078ZM255.547 72V1.29688H285.625C301.445 1.29688 311.797 11.209 311.797 26.1016C311.797 41.2383 301.152 50.7598 285.039 50.7109H274.102V72H255.547ZM274.102 36.2578H281.328C288.311 36.209 292.412 32.3027 292.363 26.1016C292.412 19.9492 288.311 16.1895 281.328 16.1406H274.102V36.2578ZM361.211 1.29688H379.766V46.707C379.814 62.7227 367.51 72.8301 349.395 72.8789C331.23 72.8301 319.072 62.7227 319.121 46.707V1.29688H337.676V45.0469C337.676 51.8828 342.559 56.7656 349.395 56.7656C356.328 56.7656 361.162 51.8828 361.211 45.0469V1.29688ZM389.336 72V1.29688H419.609C435.723 1.29688 444.17 8.2793 444.219 19.0703C444.17 26.8828 438.701 32.8398 430.645 34.5V35.1836C439.58 35.4766 446.953 41.9707 446.953 52.0781C446.953 63.6016 437.578 72 422.148 72H389.336ZM407.891 57.0586H417.363C424.053 57.1074 427.324 54.5195 427.324 49.7344C427.324 44.6074 423.613 41.6289 417.656 41.6289H407.891V57.0586ZM407.891 30.0078H416.191C421.416 30.0078 425.078 27.4688 425.078 22.9766C425.078 18.4844 421.514 15.9453 416.484 15.9453H407.891V30.0078ZM454.082 72V1.29688H472.637V56.9609H501.445V72H454.082ZM528.008 1.29688V72H509.453V1.29688H528.008ZM575.664 23.1719C575.273 18.4355 572.148 15.6035 565.801 15.6523C559.697 15.6035 556.865 18.0449 556.816 21.3164C556.67 24.9785 559.99 26.9805 566.582 28.3477L572.441 29.7148C587.627 32.9375 594.414 40.3105 594.512 51.1992C594.414 65.0664 583.77 72.8301 565.898 72.8789C547.637 72.8301 535.771 64.9199 535.625 47.4883H553.398C553.691 54.0801 558.232 57.5469 565.605 57.5469C572.002 57.5469 575.42 54.959 575.469 51.1992C575.42 47.7812 572.49 45.7793 564.629 44.0703L557.5 42.5078C545.049 39.7734 537.432 33.6211 537.48 22.6836C537.383 9.30469 549.199 0.320312 565.801 0.320312C582.744 0.320312 593.438 9.45117 593.535 23.1719H575.664ZM602.129 72V1.29688H620.684V29.1289H646.758V1.29688H665.41V72H646.758V44.168H620.684V72H602.129ZM674.883 72V1.29688H725.371V16.3359H693.438V29.1289H722.734V44.168H693.438V56.9609H725.273V72H674.883ZM735.137 72V1.29688H765.215C781.035 1.29688 791.387 10.2812 791.387 25.2227C791.387 34.9883 786.895 41.873 779.277 45.4863L793.73 72H773.516L760.967 48.4648H753.691V72H735.137ZM753.691 33.9141H760.918C767.9 33.9141 772.002 31.375 771.953 25.2227C772.002 18.9727 767.9 16.1895 760.918 16.1406H753.691V33.9141Z" fill="black"/>
</svg>
