<svg width="541" height="210" viewBox="0 0 541 210" fill="none" xmlns="http://www.w3.org/2000/svg">
<path d="M236 -1.43051e-05L229.7 12.6L190.1 210H153.2L118.4 86.1L83.6 210H46.7L6.8 12.6L0.5 -1.43051e-05H55.1L48.8 12.6L72.2 126.3L102.2 -1.43051e-05H134.3L164.6 126.3L187.7 12.6L181.4 -1.43051e-05H236ZM380.888 -1.43051e-05V48.3L368.288 42H305.288V84.3H347.288L359.888 78V132.6L347.288 126.3H305.288V168H368.288L380.888 161.7V210H311.588H256.988L263.288 197.4V12.6L256.988 -1.43051e-05H380.888ZM510.767 -1.43051e-05L540.167 29.4V81.3L516.467 105L540.167 128.7V184.2L514.367 210H407.867L414.167 197.4V12.6L407.867 -1.43051e-05H510.767ZM456.167 84H493.667V42H456.167V84ZM456.167 171.6H493.667V126H456.167V171.6Z" fill="white"/>
</svg>
