<svg width="31" height="24" viewBox="0 0 31 24" fill="none" xmlns="http://www.w3.org/2000/svg">
<rect x="0.25" y="1" width="4" height="20" rx="2" fill="black"/>
<mask id="mask0_245_817" style="mask-type:alpha" maskUnits="userSpaceOnUse" x="6" y="0" width="25" height="24">
<rect x="6.25" y="24" width="24" height="24" transform="rotate(-90 6.25 24)" fill="#D9D9D9"/>
</mask>
<g mask="url(#mask0_245_817)">
<path d="M30.25 11C30.25 11.7594 29.6344 12.375 28.875 12.375L12.5094 12.375L18.237 18.0044C18.7951 18.5529 18.7989 19.4511 18.2457 20.0043C17.6958 20.5542 16.8042 20.5542 16.2543 20.0043L7.99074 11.7407C7.58164 11.3316 7.58164 10.6684 7.99074 10.2593L16.25 2C16.8023 1.44771 17.6977 1.44772 18.25 2C18.7916 2.55279 18.7838 3.43952 18.2327 3.9828L12.5094 9.625L28.875 9.625C29.6344 9.625 30.25 10.2406 30.25 11Z" fill="black"/>
</g>
</svg>
