<svg width="1328" height="210" viewBox="0 0 1328 210" fill="none" xmlns="http://www.w3.org/2000/svg">
<path d="M103.4 -1.43051e-05L132.8 29.4V119.1L103.4 148.5H48.5V197.4H48.8L55.1 210H48.5H0.500001L6.8 197.4V12.6L0.500001 -1.43051e-05H103.4ZM48.8 106.5H86.3V42H48.8V106.5ZM263.675 -1.43051e-05L293.075 29.4V180.6L263.675 210H192.275L162.875 180.6V29.4L192.275 -1.43051e-05H263.675ZM204.875 168H251.075V42H204.875V168ZM425.959 -1.43051e-05L455.359 29.4V112.5L429.559 138.3L449.059 197.4L459.559 210H403.459L403.759 197.4L386.059 141.9H371.359V197.4L377.659 210H323.059L329.359 197.4V12.6L323.059 -1.43051e-05H425.959ZM371.359 99.9H413.359V42H371.359V99.9ZM620.935 -1.43051e-05V48.3L608.335 42H574.735V197.4L581.035 210H526.435L532.735 197.4V42H499.135L486.535 48.3V-1.43051e-05H620.935ZM771.861 -1.43051e-05V48.3L759.261 42H696.261V84.3H738.261L750.861 78V132.6L738.261 126.3H696.261V197.4L702.561 210H647.961L654.261 197.4V25.2V12.6L647.961 -1.43051e-05H771.861ZM902.64 -1.43051e-05L932.04 29.4V180.6L902.64 210H831.24L801.84 180.6V29.4L831.24 -1.43051e-05H902.64ZM843.84 168H890.04V42H843.84V168ZM1017.82 -1.43051e-05L1010.32 15V168H1073.32L1085.92 161.7V210H1016.62H962.023L968.323 197.4V12.6L962.023 -1.43051e-05H1017.82ZM1167.5 -1.43051e-05L1161.2 12.6V197.4L1167.5 210H1112.9L1119.2 197.4V12.6L1112.9 -1.43051e-05H1167.5ZM1298.44 -1.43051e-05L1327.84 29.4V180.6L1298.44 210H1227.04L1197.64 180.6V29.4L1227.04 -1.43051e-05H1298.44ZM1239.64 168H1285.84V42H1239.64V168Z" fill="white"/>
</svg>
