<svg xmlns="http://www.w3.org/2000/svg" xmlns:xlink="http://www.w3.org/1999/xlink" width="1920" height="5518" viewBox="0 0 1920 5518">
  <defs>
    <clipPath id="clip-웹_1920_3">
      <rect width="1920" height="5518"/>
    </clipPath>
  </defs>
  <g id="웹_1920_3" data-name="웹 1920 – 3" clip-path="url(#clip-웹_1920_3)">
    <rect width="1920" height="5518" fill="#fff"/>
    <g id="그룹_2" data-name="그룹 2" transform="translate(-436.627 389.902) rotate(-43)" opacity="0.55">
      <path id="패스_84" data-name="패스 84" d="M110.1,3597.905C-77.241,2899.8,21.68,2457.239,71.41,2229.71c63.05-288.526,123.883-444.211,306.361-678.077C547.789,1333.711,1067.228,407.765,1060.966.04" transform="translate(0 0)" fill="none" stroke="#000" stroke-miterlimit="10" stroke-width="1"/>
      <path id="패스_85" data-name="패스 85" d="M111.419,3597.912C-70.8,2903.485,27.733,2464.256,77.441,2236.884c63.437-290.083,123.28-446.512,301.842-681.731C545.472,1335.448,1047.932,413.063,1042.854.06" transform="translate(6.191 0.008)" fill="none" stroke="#000" stroke-miterlimit="10" stroke-width="1"/>
      <path id="패스_86" data-name="패스 86" d="M112.74,3597.925c-177.1-690.772-78.952-1126.663-29.265-1353.83,63.8-291.661,122.678-448.857,297.323-685.428C543.135,1337.181,1028.66,418.384,1024.743.06" transform="translate(12.359 0.008)" fill="none" stroke="#000" stroke-miterlimit="10" stroke-width="1"/>
      <path id="패스_87" data-name="패스 87" d="M114.084,3597.929C-57.893,2910.812,39.866,2478.282,89.531,2251.272c64.19-293.216,122.678-450.7,292.826-689.125C541.4,1339.31,1009.432,423.65,1006.677.05" transform="translate(18.525 0.004)" fill="none" stroke="#000" stroke-miterlimit="10" stroke-width="1"/>
      <path id="패스_88" data-name="패스 88" d="M115.44,3597.943C-51.416,2914.5,45.956,2485.312,95.621,2258.46c64.577-294.794,122.269-452.891,288.307-692.8C539.314,1341.134,990.216,428.948,988.623.05" transform="translate(24.679 0.004)" fill="none" stroke="#000" stroke-miterlimit="10" stroke-width="1"/>
      <path id="패스_89" data-name="패스 89" d="M116.8,3597.957c-161.734-679.786-64.75-1105.615-15.106-1332.308,64.943-296.349,121.86-455.077,283.788-696.472C537.211,1342.979,970.962,434.246,970.553.05" transform="translate(30.806 0.004)" fill="none" stroke="#000" stroke-miterlimit="10" stroke-width="1"/>
      <path id="패스_90" data-name="패스 90" d="M118.192,3597.961c-156.634-676.108-60.016-1098.6-10.394-1325.135,65.331-297.927,121.451-457.263,279.269-700.169C535.137,1344.793,951.76,439.534,952.513.04" transform="translate(36.925)" fill="none" stroke="#000" stroke-miterlimit="10" stroke-width="1"/>
      <path id="패스_91" data-name="패스 91" d="M119.584,3597.97C-31.929,2925.515,64.3,2506.384,113.9,2280.029c65.718-299.505,121.042-459.5,274.772-703.866C533.086,1346.606,932.58,444.843,934.495.05" transform="translate(43.022 0.004)" fill="none" stroke="#000" stroke-miterlimit="10" stroke-width="1"/>
      <path id="패스_92" data-name="패스 92" d="M121,3597.966c-146.391-668.781-50.547-1084.576-.968-1310.773,66.084-301.062,120.633-461.707,270.253-707.522C531.04,1348.424,913.405,450.131,916.483.06" transform="translate(49.113 0.008)" fill="none" stroke="#000" stroke-miterlimit="10" stroke-width="1"/>
      <path id="패스_93" data-name="패스 93" d="M122.439,3597.985c-141.27-665.125-45.813-1077.559,3.744-1303.6,66.471-302.616,120.225-463.937,265.734-711.216C529.012,1350.211,894.227,455.418,898.488.05" transform="translate(55.187 0.004)" fill="none" stroke="#000" stroke-miterlimit="10" stroke-width="1"/>
      <path id="패스_94" data-name="패스 94" d="M123.885,3598c-136.148-661.448-41.079-1070.543,8.457-1296.422,66.837-304.194,119.794-466.168,261.215-714.89C527.015,1352.012,875.1,460.716,880.5.05" transform="translate(61.23 0.004)" fill="none" stroke="#000" stroke-miterlimit="10" stroke-width="1"/>
      <path id="패스_95" data-name="패스 95" d="M125.359,3598C-5.668,2940.2,89.014,2534.468,138.55,2308.746c67.224-305.75,119.385-468.4,256.717-718.566C525,1353.793,855.982,466.015,862.545.05" transform="translate(67.265 0.004)" fill="none" stroke="#000" stroke-miterlimit="10" stroke-width="1"/>
      <path id="패스_96" data-name="패스 96" d="M126.846,3598.009C.941,2943.867,95.235,2541.491,144.75,2315.95c67.612-307.329,118.955-470.656,252.2-722.264C523.048,1355.54,836.876,471.3,844.622.06" transform="translate(73.266 0.008)" fill="none" stroke="#000" stroke-miterlimit="10" stroke-width="1"/>
      <path id="패스_97" data-name="패스 97" d="M128.374,3598.022c-120.806-650.464-26.9-1049.5,22.616-1274.884,67.977-308.884,118.546-472.932,247.68-725.938C521.111,1357.318,817.81,476.6,826.719.06" transform="translate(79.249 0.008)" fill="none" stroke="#000" stroke-miterlimit="10" stroke-width="1"/>
      <path id="패스_98" data-name="패스 98" d="M129.908,3598.022c-115.684-646.812-22.164-1042.511,27.329-1267.714C225.6,2019.846,275.353,1855.1,400.4,1600.7,519.159,1359.077,798.751,481.9,808.822.06" transform="translate(85.203 0.008)" fill="none" stroke="#000" stroke-miterlimit="10" stroke-width="1"/>
      <path id="패스_99" data-name="패스 99" d="M131.478,3598.04C20.916,2954.907,114.048,2562.546,163.52,2337.5c68.731-312.016,117.685-477.484,238.663-733.308C517.265,1360.819,779.728,487.186,790.982.05" transform="translate(91.143 0.004)" fill="none" stroke="#000" stroke-miterlimit="10" stroke-width="1"/>
      <path id="패스_100" data-name="패스 100" d="M133.077,3598.04c-105.441-639.48-12.7-1028.48,36.754-1253.366,69.118-313.573,117.255-479.762,234.144-736.961C515.377,1362.555,760.733,492.485,773.149.05" transform="translate(97.055 0.004)" fill="none" stroke="#000" stroke-miterlimit="10" stroke-width="1"/>
      <path id="패스_101" data-name="패스 101" d="M134.695,3598.05c-100.32-635.8-7.962-1021.468,41.466-1246.173,69.505-315.151,116.8-482.062,229.625-740.659C513.509,1364.3,741.758,497.794,755.336.06" transform="translate(102.925 0.008)" fill="none" stroke="#000" stroke-miterlimit="10" stroke-width="1"/>
      <path id="패스_102" data-name="패스 102" d="M136.355,3598.068c-95.2-632.148-3.228-1014.45,46.2-1239,69.871-316.728,116.351-484.382,225.107-744.354C511.705,1366,722.846,503.081,737.586.05" transform="translate(108.775 0.004)" fill="none" stroke="#000" stroke-miterlimit="10" stroke-width="1"/>
      <path id="패스_103" data-name="패스 103" d="M138.046,3598.068c-90.1-628.473,1.506-1007.437,50.913-1231.826,70.258-318.284,115.9-486.682,220.609-748.029C509.91,1367.713,703.965,508.357,719.867.05" transform="translate(114.572 0.004)" fill="none" stroke="#000" stroke-miterlimit="10" stroke-width="1"/>
      <path id="패스_104" data-name="패스 104" d="M139.779,3598.081C54.8,2973.263,146.019,2597.66,195.4,2373.43c70.646-319.862,115.448-489,216.09-751.7C508.135,1369.423,685.083,513.655,702.169.05" transform="translate(120.349 0.004)" fill="none" stroke="#000" stroke-miterlimit="10" stroke-width="1"/>
      <path id="패스_105" data-name="패스 105" d="M141.553,3598.085c-79.856-621.164,10.975-993.406,60.338-1217.478,71.012-321.417,114.974-491.348,211.571-755.4C506.423,1371.123,666.264,518.943,684.512.04" transform="translate(126.085 0)" fill="none" stroke="#000" stroke-miterlimit="10" stroke-width="1"/>
      <path id="패스_106" data-name="패스 106" d="M143.361,3598.1C68.627,2980.607,159.07,2611.7,208.412,2387.81c71.4-323,114.5-493.693,207.052-759.075C504.724,1372.825,647.479,524.252,666.91.05" transform="translate(131.766 0.004)" fill="none" stroke="#000" stroke-miterlimit="10" stroke-width="1"/>
      <path id="패스_107" data-name="패스 107" d="M145.228,3598.109C75.615,2984.275,165.67,2618.731,214.991,2395c71.765-324.55,114.027-496.014,202.555-762.748C503.061,1374.512,628.752,529.55,649.323.05" transform="translate(137.409 0.004)" fill="none" stroke="#000" stroke-miterlimit="10" stroke-width="1"/>
      <path id="패스_108" data-name="패스 108" d="M147.136,3598.108c-64.491-610.158,25.177-972.365,74.476-1195.94,72.152-326.128,113.554-498.382,198.036-766.446C501.462,1376.181,610.067,534.826,631.822.05" transform="translate(142.989 0.004)" fill="none" stroke="#000" stroke-miterlimit="10" stroke-width="1"/>
      <path id="패스_109" data-name="패스 109" d="M149.112,3598.119c-59.37-606.5,29.911-965.353,79.21-1188.77,72.539-327.685,113.059-500.727,193.517-770.122C499.909,1377.86,591.471,540.113,614.389.06" transform="translate(148.523 0.008)" fill="none" stroke="#000" stroke-miterlimit="10" stroke-width="1"/>
      <path id="패스_110" data-name="패스 110" d="M151.156,3598.133c-54.27-602.828,34.645-958.36,83.923-1181.6,72.905-329.262,112.543-503.093,189-773.8C498.424,1379.548,572.922,545.433,597,.06" transform="translate(153.989 0.008)" fill="none" stroke="#000" stroke-miterlimit="10" stroke-width="1"/>
      <path id="패스_111" data-name="패스 111" d="M153.256,3598.133c-49.149-599.175,39.358-951.347,88.635-1174.4,73.292-330.818,112.048-505.461,184.5-777.493C496.995,1381.194,554.428,550.709,579.691.06" transform="translate(159.378 0.008)" fill="none" stroke="#000" stroke-miterlimit="10" stroke-width="1"/>
      <path id="패스_112" data-name="패스 112" d="M155.44,3598.147c-44.027-595.5,44.092-944.333,93.348-1167.23,73.68-332.4,111.531-507.828,179.982-781.167C495.607,1382.859,536.019,556.007,562.423.06" transform="translate(164.703 0.008)" fill="none" stroke="#000" stroke-miterlimit="10" stroke-width="1"/>
      <path id="패스_113" data-name="패스 113" d="M157.7,3598.147c-38.906-591.845,48.826-937.32,98.06-1160.06,74.046-333.952,110.993-510.218,175.463-784.843C494.316,1384.505,517.685,561.306,545.251.06" transform="translate(169.932 0.008)" fill="none" stroke="#000" stroke-miterlimit="10" stroke-width="1"/>
      <path id="패스_114" data-name="패스 114" d="M160.063,3598.164c-33.784-588.189,53.56-930.3,102.773-1152.883,74.433-335.528,110.455-512.583,170.944-788.537C493.108,1386.157,499.455,566.593,528.183.05" transform="translate(175.079 0.004)" fill="none" stroke="#000" stroke-miterlimit="10" stroke-width="1"/>
      <path id="패스_115" data-name="패스 115" d="M162.522,3598.175c-28.663-584.514,58.294-923.29,107.486-1145.712,74.8-337.084,109.917-514.974,166.447-792.213C491.994,1387.813,481.321,571.879,511.232.06" transform="translate(180.109 0.008)" fill="none" stroke="#000" stroke-miterlimit="10" stroke-width="1"/>
      <path id="패스_116" data-name="패스 116" d="M165.112,3598.178c-23.563-580.86,63.028-916.274,112.22-1138.539,75.186-338.662,109.358-517.362,161.928-795.886C491.012,1389.468,463.339,577.189,494.412.05" transform="translate(185.028 0.004)" fill="none" stroke="#000" stroke-miterlimit="10" stroke-width="1"/>
      <path id="패스_117" data-name="패스 117" d="M167.832,3598.189C149.39,3021,235.594,2688.927,284.764,2466.843c75.573-340.218,108.8-519.752,157.409-799.584C490.138,1391.1,445.465,582.476,477.7.06" transform="translate(189.819 0.008)" fill="none" stroke="#000" stroke-miterlimit="10" stroke-width="1"/>
      <path id="패스_118" data-name="패스 118" d="M170.692,3598.192c-13.32-573.53,72.5-902.247,121.645-1124.173,75.939-341.8,108.239-522.141,152.911-803.258,44.178-278.027-17.516-1083,15.9-1670.712" transform="translate(194.447 0.004)" fill="none" stroke="#000" stroke-miterlimit="10" stroke-width="1"/>
      <path id="패스_119" data-name="패스 119" d="M173.734,3598.2c-8.2-569.855,77.23-895.234,126.358-1117,76.327-343.352,107.658-524.532,148.393-806.933C488.853,1394.391,410.181,593.072,444.762.06" transform="translate(198.915 0.008)" fill="none" stroke="#000" stroke-miterlimit="10" stroke-width="1"/>
      <path id="패스_120" data-name="패스 120" d="M176.963,3598.22c-3.077-566.2,81.965-888.218,131.07-1109.826,76.714-344.928,107.077-526.919,143.874-810.627C488.446,1396.02,392.817,598.358,428.56.05" transform="translate(203.174 0.004)" fill="none" stroke="#000" stroke-miterlimit="10" stroke-width="1"/>
      <path id="패스_121" data-name="패스 121" d="M180.41,3598.22c2.044-562.546,86.7-881.205,135.783-1102.656,77.08-346.484,106.474-529.332,139.355-814.3C488.277,1397.643,375.67,603.635,412.575.05" transform="translate(207.238 0.004)" fill="none" stroke="#000" stroke-miterlimit="10" stroke-width="1"/>
      <path id="패스_122" data-name="패스 122" d="M183.9,3598.23c7.166-558.87,91.433-874.192,140.5-1095.463,77.467-348.062,105.872-531.722,134.857-817.978C488.131,1399.3,358.567,608.966,396.655.06" transform="translate(211.258 0.008)" fill="none" stroke="#000" stroke-miterlimit="10" stroke-width="1"/>
      <path id="패스_123" data-name="패스 123" d="M187.38,3598.244c12.266-555.216,96.167-867.2,145.229-1088.29,77.833-349.617,105.269-534.111,130.339-821.674C488,1400.92,341.475,614.241,380.725.06" transform="translate(215.266 0.008)" fill="none" stroke="#000" stroke-miterlimit="10" stroke-width="1"/>
      <path id="패스_124" data-name="패스 124" d="M190.87,3598.248c17.387-551.539,100.9-860.185,149.942-1081.117,78.22-351.195,104.645-536.5,125.82-825.347C487.827,1402.575,324.372,619.529,364.784.05" transform="translate(219.286 0.004)" fill="none" stroke="#000" stroke-miterlimit="10" stroke-width="1"/>
      <path id="패스_125" data-name="패스 125" d="M194.35,3598.258C216.859,3050.371,299.964,2745.085,349,2524.312c78.608-352.751,104.021-538.912,121.3-829.023C487.649,1404.208,307.258,624.837,348.832.06" transform="translate(223.295 0.008)" fill="none" stroke="#000" stroke-miterlimit="10" stroke-width="1"/>
      <path id="패스_126" data-name="패스 126" d="M197.84,3598.265c27.63-544.208,110.348-846.156,159.367-1066.77,78.974-354.328,103.4-541.3,116.8-832.717C487.481,1405.828,290.155,630.113,332.912.04" transform="translate(227.315 0)" fill="none" stroke="#000" stroke-miterlimit="10" stroke-width="1"/>
      <path id="패스_127" data-name="패스 127" d="M201.32,3598.271c32.751-540.557,115.082-839.146,164.08-1059.58C444.76,2182.807,468.151,1995,477.684,1702.3,487.281,1407.474,273.042,635.411,316.961.06" transform="translate(231.323 0.008)" fill="none" stroke="#000" stroke-miterlimit="10" stroke-width="1"/>
      <path id="패스_128" data-name="패스 128" d="M204.81,3598.281C242.683,3061.4,324.626,2766.148,373.6,2545.871,453.35,2188.409,475.708,1999.79,481.368,1705.8,487.092,1409.13,255.938,640.72,301,.07" transform="translate(235.343 0.012)" fill="none" stroke="#000" stroke-miterlimit="10" stroke-width="1"/>
      <path id="패스_129" data-name="패스 129" d="M208.3,3598.289c42.994-533.226,124.55-825.116,173.5-1045.234,80.114-359.017,101.439-548.469,103.247-843.764C486.88,1410.75,238.813,646,285.057.05" transform="translate(239.363 0.004)" fill="none" stroke="#000" stroke-miterlimit="10" stroke-width="1"/>
      <path id="패스_130" data-name="패스 130" d="M211.78,3598.3C259.874,3068.731,341.064,2780.2,390,2560.241c80.5-360.594,100.793-550.857,98.749-847.437-2.066-300.39-267-1061.512-219.6-1712.755" transform="translate(243.372 0.004)" fill="none" stroke="#000" stroke-miterlimit="10" stroke-width="1"/>
      <path id="패스_131" data-name="패스 131" d="M215.27,3598.316c53.216-525.9,134.018-811.087,182.952-1030.889,80.867-362.149,100.1-553.246,94.23-851.11C486.47,1414.057,204.618,656.591,253.207.05" transform="translate(247.392 0.004)" fill="none" stroke="#000" stroke-miterlimit="10" stroke-width="1"/>
      <path id="패스_132" data-name="패스 132" d="M218.75,3598.313c58.337-522.244,138.752-804.077,187.664-1023.7,81.254-363.728,99.438-555.638,89.711-854.81C486.248,1415.695,187.526,661.878,237.256.06" transform="translate(251.4 0.008)" fill="none" stroke="#000" stroke-miterlimit="10" stroke-width="1"/>
      <path id="패스_133" data-name="패스 133" d="M225.705,3598.331c63.458-518.566,143.486-797.06,192.377-1016.523,81.642-365.282,98.749-558,85.192-858.481C489.481,1417.346,173.888,667.187,224.78.05" transform="translate(251.955 0.004)" fill="none" stroke="#000" stroke-miterlimit="10" stroke-width="1"/>
      <path id="패스_134" data-name="패스 134" d="M239.575,3598.331c68.58-514.913,148.22-790.048,197.089-1009.353,82.007-366.861,98.06-560.392,80.695-862.179C499.628,1418.992,167.165,672.463,219.24.05" transform="translate(245.596 0.004)" fill="none" stroke="#000" stroke-miterlimit="10" stroke-width="1"/>
      <path id="패스_135" data-name="패스 135" d="M253.447,3598.344c73.7-511.237,152.955-783.055,201.8-1002.179,82.395-368.416,97.372-562.759,76.176-865.853C509.778,1420.657,160.444,677.76,213.681.05" transform="translate(239.212 0.004)" fill="none" stroke="#000" stroke-miterlimit="10" stroke-width="1"/>
      <path id="패스_136" data-name="패스 136" d="M267.334,3598.358c78.8-507.582,157.689-776.041,206.514-995.007,82.782-369.993,96.662-565.125,71.657-869.526C519.92,1422.323,153.737,683.057,208.136.05" transform="translate(232.835 0.004)" fill="none" stroke="#000" stroke-miterlimit="10" stroke-width="1"/>
      <path id="패스_137" data-name="패스 137" d="M281.2,3598.358c83.923-503.907,162.423-769.029,211.227-987.814C575.577,2239,588.4,2043.052,559.567,1737.321,530.065,1423.991,147.033,688.356,202.594.05" transform="translate(226.456 0.004)" fill="none" stroke="#000" stroke-miterlimit="10" stroke-width="1"/>
      <path id="패스_138" data-name="패스 138" d="M295.1,3598.372c89.044-500.253,167.157-762.014,215.961-980.641,83.535-373.126,95.263-569.859,62.641-876.9C540.193,1425.679,140.312,693.653,197.057.05" transform="translate(220.071 0.004)" fill="none" stroke="#000" stroke-miterlimit="10" stroke-width="1"/>
      <path id="패스_139" data-name="패스 139" d="M308.99,3598.372c94.166-496.6,171.869-755,220.674-973.47,83.9-374.682,94.531-572.2,58.122-880.572C550.343,1427.347,133.613,698.93,191.52.05" transform="translate(213.688 0.004)" fill="none" stroke="#000" stroke-miterlimit="10" stroke-width="1"/>
      <path id="패스_140" data-name="패스 140" d="M322.865,3598.386c99.287-492.924,176.6-747.988,225.386-966.3,84.289-376.26,93.821-574.57,53.6-884.268C560.474,1429.013,126.916,704.227,185.985.05" transform="translate(207.301 0.004)" fill="none" stroke="#000" stroke-miterlimit="10" stroke-width="1"/>
      <path id="패스_141" data-name="패스 141" d="M336.765,3598.4c104.408-489.27,181.338-740.973,230.1-959.126,84.676-377.837,93.09-576.913,49.084-887.941C570.587,1430.7,120.2,709.524,180.454.05" transform="translate(200.911 0.004)" fill="none" stroke="#000" stroke-miterlimit="10" stroke-width="1"/>
      <path id="패스_142" data-name="패스 142" d="M350.644,3598.4c109.53-485.594,186.072-733.961,234.811-951.933,85.042-379.393,92.358-579.259,44.587-891.617C580.721,1432.391,113.508,714.823,174.922.05" transform="translate(194.52 0.004)" fill="none" stroke="#000" stroke-miterlimit="10" stroke-width="1"/>
      <path id="패스_143" data-name="패스 143" d="M364.545,3598.414c114.63-481.94,190.806-726.947,239.524-944.76,85.429-380.971,91.626-581.6,40.068-895.312C590.835,1434.079,106.816,720.12,169.393.05" transform="translate(188.13 0.004)" fill="none" stroke="#000" stroke-miterlimit="10" stroke-width="1"/>
      <path id="패스_144" data-name="패스 144" d="M378.426,3598.428c119.751-478.264,195.54-719.933,244.237-937.588,85.795-382.525,90.895-583.946,35.549-898.985C600.972,1435.766,100.126,725.417,163.864.05" transform="translate(181.737 0.004)" fill="none" stroke="#000" stroke-miterlimit="10" stroke-width="1"/>
      <path id="패스_145" data-name="패스 145" d="M392.332,3598.428C517.205,3123.817,592.607,2885.507,641.3,2668.01c86.182-384.1,90.142-586.269,31.03-902.661C611.091,1437.48,93.417,730.693,158.339.05" transform="translate(175.34 0.004)" fill="none" stroke="#000" stroke-miterlimit="10" stroke-width="1"/>
      <path id="패스_146" data-name="패스 146" d="M406.247,3598.441c129.994-470.935,205.008-705.906,253.683-923.245,86.57-385.659,89.41-588.59,26.532-906.357C621.2,1439.168,86.738,735.99,152.8.05" transform="translate(168.936 0.004)" fill="none" stroke="#000" stroke-miterlimit="10" stroke-width="1"/>
      <path id="패스_147" data-name="패스 147" d="M420.132,3598.441c135.116-467.282,209.742-698.916,258.4-916.075,86.935-387.237,88.657-590.912,22.014-910.032C631.316,1440.881,80.051,741.289,147.275.05" transform="translate(162.54 0.004)" fill="none" stroke="#000" stroke-miterlimit="10" stroke-width="1"/>
      <path id="패스_148" data-name="패스 148" d="M434.041,3598.455c140.237-463.628,214.476-691.9,263.109-908.88,87.323-388.792,87.9-593.233,17.495-913.7C641.416,1442.592,73.345,746.586,141.753.05" transform="translate(156.14 0.004)" fill="none" stroke="#000" stroke-miterlimit="10" stroke-width="1"/>
      <path id="패스_149" data-name="패스 149" d="M447.927,3598.469c145.337-459.952,219.21-684.888,267.821-901.707,87.71-390.369,87.151-595.554,13-917.4C651.537,1444.324,66.66,751.883,136.23.05" transform="translate(149.743 0.004)" fill="none" stroke="#000" stroke-miterlimit="10" stroke-width="1"/>
      <path id="패스_150" data-name="패스 150" d="M461.836,3598.469c150.458-456.3,223.945-677.876,272.534-894.537,88.076-391.925,86.4-597.854,8.478-921.076C661.637,1446.038,59.975,757.159,130.707.05" transform="translate(143.344 0.004)" fill="none" stroke="#000" stroke-miterlimit="10" stroke-width="1"/>
      <path id="패스_151" data-name="패스 151" d="M475.746,3598.483c155.58-452.623,228.679-670.862,277.246-887.365,88.463-393.5,85.644-600.175,3.959-924.749C671.738,1447.771,53.292,762.456,125.185.05" transform="translate(136.944 0.004)" fill="none" stroke="#000" stroke-miterlimit="10" stroke-width="1"/>
      <path id="패스_152" data-name="패스 152" d="M489.636,3598.483c160.7-448.969,233.413-663.85,281.98-880.195,88.829-395.058,84.891-602.474-.559-928.447C681.84,1449.507,46.589,767.754,119.666.05" transform="translate(130.543 0.004)" fill="none" stroke="#000" stroke-miterlimit="10" stroke-width="1"/>
      <path id="패스_153" data-name="패스 153" d="M503.547,3598.5c165.823-445.294,238.125-656.836,286.693-873,89.216-396.636,84.138-604.773-5.057-932.12C691.943,1451.239,39.906,773.051,114.145.05" transform="translate(124.142 0.004)" fill="none" stroke="#000" stroke-miterlimit="10" stroke-width="1"/>
      <path id="패스_154" data-name="패스 154" d="M517.437,3598.511c170.944-441.64,242.859-649.822,291.405-865.828,89.6-398.19,83.363-607.048-9.576-935.792C702.045,1452.972,33.224,778.348,108.625.05" transform="translate(117.74 0.004)" fill="none" stroke="#000" stroke-miterlimit="10" stroke-width="1"/>
      <path id="패스_155" data-name="패스 155" d="M531.35,3598.511c176.065-437.964,247.594-642.81,296.118-858.658,89.969-399.769,82.61-609.348-14.095-939.49C712.128,1454.731,26.523,783.624,103.108.05" transform="translate(111.337 0.004)" fill="none" stroke="#000" stroke-miterlimit="10" stroke-width="1"/>
      <path id="패스_156" data-name="패스 156" d="M545.262,3598.525c181.166-434.311,252.328-635.8,300.831-851.485,90.357-401.324,81.835-611.625-18.614-943.164C722.232,1456.463,19.842,788.921,97.588.05" transform="translate(104.934 0.004)" fill="none" stroke="#000" stroke-miterlimit="10" stroke-width="1"/>
      <path id="패스_157" data-name="패스 157" d="M559.154,3598.538c186.287-430.657,257.062-628.781,305.543-844.313,90.744-402.9,81.061-613.9-23.111-946.836C732.314,1458.219,13.161,794.218,92.07.05" transform="translate(98.532 0.004)" fill="none" stroke="#000" stroke-miterlimit="10" stroke-width="1"/>
      <path id="패스_158" data-name="패스 158" d="M573.067,3598.538c191.408-426.981,261.8-621.77,310.256-837.121,91.11-404.457,80.308-616.177-27.63-950.534C742.418,1459.977,6.481,799.516,86.552.05" transform="translate(92.129 0.004)" fill="none" stroke="#000" stroke-miterlimit="10" stroke-width="1"/>
      <path id="패스_159" data-name="패스 159" d="M586.97,3598.552C783.5,3175.224,853.5,2983.774,901.96,2768.6c91.5-406.034,79.533-618.453-32.149-954.207C752.513,1461.733-.209,804.813,81.024.05" transform="translate(85.713 0.004)" fill="none" stroke="#000" stroke-miterlimit="10" stroke-width="1"/>
      <path id="패스_160" data-name="패스 160" d="M600.884,3598.552c201.651-419.653,271.264-607.766,319.7-822.779,91.863-407.59,78.758-620.73-36.668-957.882C762.6,1463.514-6.888,810.089,75.507.05" transform="translate(79.309 0.004)" fill="none" stroke="#000" stroke-miterlimit="10" stroke-width="1"/>
      <path id="패스_161" data-name="패스 161" d="M614.777,3598.566c206.773-416,276-600.752,324.415-815.606,92.25-409.167,77.984-622.984-41.165-961.578C772.681,1465.269-13.567,815.386,69.99.05" transform="translate(72.905 0.004)" fill="none" stroke="#000" stroke-miterlimit="10" stroke-width="1"/>
      <path id="패스_162" data-name="패스 162" d="M628.7,3598.58c211.894-412.323,280.732-593.739,329.128-808.434,92.638-410.722,76.714-625.057-45.684-965.25C782.253,1467.25-20.264,820.682,64.476.05" transform="translate(66.498 0.004)" fill="none" stroke="#000" stroke-miterlimit="10" stroke-width="1"/>
      <path id="패스_163" data-name="패스 163" d="M642.609,3598.58c216.994-408.67,285.466-586.726,333.84-801.242,93-412.3,76.111-627.379-50.2-968.926C792.508,1468.963-26.943,825.981,58.959.05" transform="translate(60.092 0.004)" fill="none" stroke="#000" stroke-miterlimit="10" stroke-width="1"/>
      <path id="패스_164" data-name="패스 164" d="M656.5,3598.594c222.115-404.994,290.2-579.713,338.553-794.07,93.391-413.855,75.509-629.677-54.722-972.621C802.786,1470.673-33.622,831.277,53.442.05" transform="translate(53.689 0.004)" fill="none" stroke="#000" stroke-miterlimit="10" stroke-width="1"/>
      <path id="패스_165" data-name="패스 165" d="M670.417,3598.594c227.237-401.341,294.935-572.7,343.265-786.9,93.778-415.433,74.907-632-59.219-976.3C813.043,1472.387-40.3,836.554,47.926.05" transform="translate(47.283 0.004)" fill="none" stroke="#000" stroke-miterlimit="10" stroke-width="1"/>
    </g>
    <g id="그룹_3" data-name="그룹 3" transform="translate(2001.301 2471.594) rotate(38)" opacity="0.55">
      <path id="패스_84-2" data-name="패스 84" d="M91.179,4145.216c-155-804.3-73.156-1314.185-32.011-1576.326,52.165-332.417,102.5-511.785,253.473-781.226C453.309,1536.59,883.076,469.789,877.895.04" transform="translate(0 0)" fill="none" stroke="#000" stroke-miterlimit="10" stroke-width="1"/>
      <path id="패스_85-2" data-name="패스 85" d="M93.2,4145.223c-150.763-800.065-69.239-1306.11-28.112-1568.07,52.486-334.211,102-514.437,249.734-785.437C452.319,1538.589,868.039,475.89,863.837.06" transform="translate(4.194 0.008)" fill="none" stroke="#000" stroke-miterlimit="10" stroke-width="1"/>
      <path id="패스_86-2" data-name="패스 86" d="M95.215,4145.236C-51.31,3349.383,29.893,2847.184,71,2585.459c52.788-336.029,101.5-517.137,246-789.7C451.31,1540.585,853.018,482.02,849.777.06" transform="translate(8.373 0.008)" fill="none" stroke="#000" stroke-miterlimit="10" stroke-width="1"/>
      <path id="패스_87-2" data-name="패스 87" d="M97.251,4145.24C-45.037,3353.6,35.846,2855.272,76.937,2593.729c53.109-337.82,101.5-519.266,242.275-793.954C450.8,1543.039,838.033,488.088,835.754.05" transform="translate(12.551 0.004)" fill="none" stroke="#000" stroke-miterlimit="10" stroke-width="1"/>
      <path id="패스_88-2" data-name="패스 88" d="M99.3,4145.253c-138.051-787.4-57.489-1281.884-16.4-1543.244,53.429-339.638,101.161-521.784,238.536-798.187C450,1545.139,823.057,494.191,821.739.05" transform="translate(16.72 0.004)" fill="none" stroke="#000" stroke-miterlimit="10" stroke-width="1"/>
      <path id="패스_89-2" data-name="패스 89" d="M101.34,4145.268c-133.814-783.194-53.572-1273.8-12.5-1534.978,53.732-341.429,100.823-524.3,234.8-802.419C449.173,1547.265,808.045,500.3,807.707.05" transform="translate(20.871 0.004)" fill="none" stroke="#000" stroke-miterlimit="10" stroke-width="1"/>
      <path id="패스_90-2" data-name="패스 90" d="M103.408,4145.271c-129.594-778.956-49.655-1265.717-8.6-1526.712,54.052-343.247,100.485-526.822,231.058-806.677C448.375,1549.355,793.075,506.389,793.7.04" transform="translate(25.017)" fill="none" stroke="#000" stroke-miterlimit="10" stroke-width="1"/>
      <path id="패스_91-2" data-name="패스 91" d="M105.473,4145.281c-125.357-774.748-45.738-1257.637-4.7-1518.424,54.373-345.065,100.147-529.393,227.337-810.938C447.592,1551.443,778.12,512.5,779.7.05" transform="translate(29.147 0.004)" fill="none" stroke="#000" stroke-miterlimit="10" stroke-width="1"/>
      <path id="패스_92-2" data-name="패스 92" d="M107.56,4145.278c-121.12-770.516-41.821-1249.561-.8-1510.167,54.676-346.859,99.808-531.941,223.6-815.149C446.812,1553.536,763.168,518.6,765.714.06" transform="translate(33.274 0.008)" fill="none" stroke="#000" stroke-miterlimit="10" stroke-width="1"/>
      <path id="패스_93-2" data-name="패스 93" d="M109.659,4145.3c-116.882-766.3-37.9-1241.475,3.1-1501.9,55-348.65,99.47-534.51,219.86-819.4C446.044,1555.595,748.211,524.688,751.736.05" transform="translate(37.389 0.004)" fill="none" stroke="#000" stroke-miterlimit="10" stroke-width="1"/>
      <path id="패스_94-2" data-name="패스 94" d="M111.76,4145.309c-112.645-762.065-33.988-1233.391,7-1493.631,55.3-350.468,99.114-537.08,216.121-823.637C445.3,1557.669,733.292,530.791,737.761.05" transform="translate(41.483 0.004)" fill="none" stroke="#000" stroke-miterlimit="10" stroke-width="1"/>
      <path id="패스_95-2" data-name="패스 95" d="M113.885,4145.309C5.477,3387.452,83.814,2920,124.8,2659.94c55.619-352.26,98.776-539.652,212.4-827.872C444.538,1559.721,718.379,536.9,723.809.05" transform="translate(45.572 0.004)" fill="none" stroke="#000" stroke-miterlimit="10" stroke-width="1"/>
      <path id="패스_96-2" data-name="패스 96" d="M116.015,4145.32c-104.17-753.648-26.154-1217.233,14.813-1477.083,55.94-354.078,98.42-542.25,208.661-832.133C443.819,1561.732,703.47,542.986,709.879.06" transform="translate(49.638 0.008)" fill="none" stroke="#000" stroke-miterlimit="10" stroke-width="1"/>
      <path id="패스_97-2" data-name="패스 97" d="M118.175,4145.333C18.224,3395.922,95.92,2936.185,136.887,2676.517c56.242-355.87,98.081-544.873,204.922-836.365C443.113,1563.78,688.592,549.09,695.963.06" transform="translate(53.691 0.008)" fill="none" stroke="#000" stroke-miterlimit="10" stroke-width="1"/>
      <path id="패스_98-2" data-name="패스 98" d="M120.337,4145.333C24.623,3400.13,102,2944.238,142.948,2684.779c56.563-357.689,97.725-547.5,201.183-840.6C442.391,1565.806,673.716,555.195,682.048.06" transform="translate(57.725 0.008)" fill="none" stroke="#000" stroke-miterlimit="10" stroke-width="1"/>
      <path id="패스_99-2" data-name="패스 99" d="M122.526,4145.351c-91.476-740.963-14.421-1193.008,26.51-1452.284,56.865-359.479,97.369-550.117,197.462-844.856C441.713,1567.813,658.867,561.287,668.178.05" transform="translate(61.749 0.004)" fill="none" stroke="#000" stroke-miterlimit="10" stroke-width="1"/>
      <path id="패스_100-2" data-name="패스 100" d="M124.735,4145.351C37.5,3408.6,114.23,2960.422,155.144,2701.328c57.186-361.272,97.013-552.742,193.724-849.065C441.038,1569.814,644.037,567.392,654.31.05" transform="translate(65.754 0.004)" fill="none" stroke="#000" stroke-miterlimit="10" stroke-width="1"/>
      <path id="패스_101-2" data-name="패스 101" d="M126.953,4145.361c-83-732.521-6.587-1176.849,34.308-1435.736,57.506-363.091,96.639-555.392,189.985-853.325C440.372,1571.824,629.217,573.507,640.452.06" transform="translate(69.731 0.008)" fill="none" stroke="#000" stroke-miterlimit="10" stroke-width="1"/>
      <path id="패스_102-2" data-name="패스 102" d="M129.2,4145.378c-78.764-728.307-2.671-1168.762,38.225-1427.466,57.809-364.907,96.265-558.064,186.246-857.581C439.756,1573.779,614.447,579.6,626.643.05" transform="translate(73.694 0.004)" fill="none" stroke="#000" stroke-miterlimit="10" stroke-width="1"/>
      <path id="패스_103-2" data-name="패스 103" d="M131.471,4145.378c-74.545-724.073,1.246-1160.683,42.124-1419.2,58.13-366.7,95.891-560.714,182.525-861.816C439.139,1575.754,599.694,585.678,612.851.05" transform="translate(77.622 0.004)" fill="none" stroke="#000" stroke-miterlimit="10" stroke-width="1"/>
      <path id="패스_104-2" data-name="패스 104" d="M133.771,4145.392c-70.307-719.861,5.163-1152.6,46.023-1410.938,58.45-368.518,95.518-563.388,178.786-866.048C438.537,1577.724,584.938,591.782,599.074.05" transform="translate(81.536 0.004)" fill="none" stroke="#000" stroke-miterlimit="10" stroke-width="1"/>
      <path id="패스_105-2" data-name="패스 105" d="M136.1,4145.4c-66.07-715.651,9.08-1144.517,49.922-1402.673,58.753-370.308,95.126-566.088,175.047-870.305C437.98,1579.684,570.227,597.875,585.325.04" transform="translate(85.422 0)" fill="none" stroke="#000" stroke-miterlimit="10" stroke-width="1"/>
      <path id="패스_106-2" data-name="패스 106" d="M138.446,4145.406c-61.833-711.416,13-1136.437,53.821-1394.385C251.34,2378.893,287,2182.23,363.575,1876.48,437.426,1581.642,555.536,603.99,571.613.05" transform="translate(89.271 0.004)" fill="none" stroke="#000" stroke-miterlimit="10" stroke-width="1"/>
      <path id="패스_107-2" data-name="패스 107" d="M140.836,4145.42c-57.6-707.206,16.914-1128.354,57.72-1386.12,59.376-373.918,94.343-571.464,167.587-878.772C436.9,1583.586,540.888,610.093,557.909.05" transform="translate(93.094 0.004)" fill="none" stroke="#000" stroke-miterlimit="10" stroke-width="1"/>
      <path id="패스_108-2" data-name="패스 108" d="M143.251,4145.419c-53.358-702.971,20.83-1120.275,61.619-1377.858,59.7-375.737,93.951-574.192,163.849-883.033C436.409,1585.508,526.265,616.172,544.265.05" transform="translate(96.874 0.004)" fill="none" stroke="#000" stroke-miterlimit="10" stroke-width="1"/>
      <path id="패스_109-2" data-name="패스 109" d="M145.716,4145.43c-49.121-698.762,24.747-1112.2,65.536-1369.6,60.017-377.53,93.541-576.894,160.11-887.267C435.954,1587.44,511.709,622.262,530.67.06" transform="translate(100.624 0.008)" fill="none" stroke="#000" stroke-miterlimit="10" stroke-width="1"/>
      <path id="패스_110-2" data-name="패스 110" d="M148.226,4145.444c-44.9-694.526,28.664-1104.139,69.435-1361.332,60.319-379.347,93.114-579.62,156.371-891.5C435.544,1589.385,497.181,628.391,517.1.06" transform="translate(104.327 0.008)" fill="none" stroke="#000" stroke-miterlimit="10" stroke-width="1"/>
      <path id="패스_111-2" data-name="패스 111" d="M150.771,4145.444C110.107,3455.126,183.334,3049.385,224.1,2792.4c60.64-381.14,92.7-582.348,152.65-895.76C435.169,1591.281,482.688,634.47,503.589.06" transform="translate(107.978 0.008)" fill="none" stroke="#000" stroke-miterlimit="10" stroke-width="1"/>
      <path id="패스_112-2" data-name="패스 112" d="M153.376,4145.458c-36.427-686.08,36.48-1087.977,77.233-1344.779,60.96-382.957,92.277-585.074,148.911-899.992C434.819,1593.2,468.255,640.573,490.1.06" transform="translate(111.586 0.008)" fill="none" stroke="#000" stroke-miterlimit="10" stroke-width="1"/>
      <path id="패스_113-2" data-name="패스 113" d="M156.029,4145.458c-32.189-681.872,40.4-1079.9,81.132-1336.518,61.263-384.75,91.832-587.828,145.172-904.226C434.535,1595.1,453.87,646.678,476.676.06" transform="translate(115.129 0.008)" fill="none" stroke="#000" stroke-miterlimit="10" stroke-width="1"/>
      <path id="패스_114-2" data-name="패스 114" d="M158.756,4145.476c-27.952-677.66,44.314-1071.812,85.031-1328.249,61.583-386.566,91.387-590.552,141.434-908.482C434.306,1597,439.558,652.77,463.326.05" transform="translate(118.615 0.004)" fill="none" stroke="#000" stroke-miterlimit="10" stroke-width="1"/>
      <path id="패스_115-2" data-name="패스 115" d="M161.544,4145.486c-23.715-673.425,48.231-1063.732,88.93-1319.988,61.886-388.358,90.942-593.306,137.713-912.717C434.139,1598.9,425.308,658.859,450.056.06" transform="translate(122.023 0.008)" fill="none" stroke="#000" stroke-miterlimit="10" stroke-width="1"/>
      <path id="패스_116-2" data-name="패스 116" d="M164.425,4145.489c-19.5-669.214,52.147-1055.649,92.847-1311.723,62.207-390.176,90.479-596.058,133.974-916.948C434.064,1600.812,411.168,664.978,436.877.05" transform="translate(125.356 0.004)" fill="none" stroke="#000" stroke-miterlimit="10" stroke-width="1"/>
      <path id="패스_117-2" data-name="패스 117" d="M167.393,4145.5c-15.258-664.979,56.064-1047.57,96.746-1303.435,62.527-391.969,90.016-598.812,130.235-921.209C434.059,1602.693,397.1,671.067,423.768.06" transform="translate(128.602 0.008)" fill="none" stroke="#000" stroke-miterlimit="10" stroke-width="1"/>
      <path id="패스_118-2" data-name="패스 118" d="M170.453,4145.5c-11.021-660.769,59.981-1039.487,100.645-1295.17,62.83-393.786,89.553-601.563,126.514-925.44C434.163,1604.575,383.12,677.16,410.769.05" transform="translate(131.737 0.004)" fill="none" stroke="#000" stroke-miterlimit="10" stroke-width="1"/>
      <path id="패스_119-2" data-name="패스 119" d="M173.639,4145.513c-6.783-656.535,63.9-1031.408,104.544-1286.909,63.15-395.578,89.073-604.317,122.775-929.675,33.4-322.448-31.691-1245.654-3.08-1928.869" transform="translate(134.764 0.008)" fill="none" stroke="#000" stroke-miterlimit="10" stroke-width="1"/>
      <path id="패스_120-2" data-name="패스 120" d="M176.949,4145.53c-2.546-652.322,67.815-1023.322,108.443-1278.639,63.471-397.395,88.592-607.068,119.036-933.93C434.66,1608.358,355.54,689.366,385.112.05" transform="translate(137.65 0.004)" fill="none" stroke="#000" stroke-miterlimit="10" stroke-width="1"/>
      <path id="패스_121-2" data-name="패스 121" d="M180.41,4145.53c1.691-648.113,71.732-1015.243,112.342-1270.378,63.773-399.187,88.093-609.847,115.3-938.164C435.13,1610.229,341.962,695.445,372.5.05" transform="translate(140.403 0.004)" fill="none" stroke="#000" stroke-miterlimit="10" stroke-width="1"/>
      <path id="패스_122-2" data-name="패스 122" d="M183.9,4145.541c5.929-643.88,75.649-1007.164,116.241-1262.092,64.094-401.005,87.595-612.6,111.577-942.4C435.611,1612.135,328.414,701.586,359.927.06" transform="translate(143.126 0.008)" fill="none" stroke="#000" stroke-miterlimit="10" stroke-width="1"/>
      <path id="패스_123-2" data-name="패스 123" d="M187.38,4145.555c10.148-639.669,79.565-999.108,120.158-1253.827,64.4-402.8,87.1-615.353,107.838-946.657C436.1,1614,314.873,707.663,347.347.06" transform="translate(145.842 0.008)" fill="none" stroke="#000" stroke-miterlimit="10" stroke-width="1"/>
      <path id="패스_124-2" data-name="패스 124" d="M190.87,4145.559C205.255,3510.126,274.352,3154.534,314.927,2900c64.717-404.614,86.58-618.1,104.1-950.889C436.563,1615.908,301.325,713.756,334.761.05" transform="translate(148.566 0.004)" fill="none" stroke="#000" stroke-miterlimit="10" stroke-width="1"/>
      <path id="패스_125-2" data-name="패스 125" d="M194.35,4145.569c18.623-631.224,87.381-982.947,127.956-1237.3,65.037-406.406,86.064-620.885,100.36-955.123C437.016,1617.789,287.767,719.87,322.164.06" transform="translate(151.281 0.008)" fill="none" stroke="#000" stroke-miterlimit="10" stroke-width="1"/>
      <path id="패스_126-2" data-name="패스 126" d="M197.84,4145.576c22.86-626.985,91.3-974.861,131.855-1229.032,65.34-408.222,85.547-623.634,96.639-959.378C437.48,1619.656,274.218,725.951,309.595.04" transform="translate(154.005 0)" fill="none" stroke="#000" stroke-miterlimit="10" stroke-width="1"/>
      <path id="패스_127-2" data-name="패스 127" d="M201.32,4145.583c27.1-622.779,95.215-966.785,135.754-1220.749,65.661-410.016,85.013-626.39,92.9-963.615C437.915,1621.551,260.66,732.052,297,.06" transform="translate(156.721 0.008)" fill="none" stroke="#000" stroke-miterlimit="10" stroke-width="1"/>
      <path id="패스_128-2" data-name="패스 128" d="M204.81,4145.592c31.335-618.545,99.132-958.705,139.653-1212.488,65.981-411.835,84.479-629.144,89.162-967.849C438.361,1623.457,247.112,738.167,284.393.07" transform="translate(159.444 0.012)" fill="none" stroke="#000" stroke-miterlimit="10" stroke-width="1"/>
      <path id="패스_129-2" data-name="패스 129" d="M208.3,4145.6c35.572-614.333,103.049-950.62,143.552-1204.219,66.284-413.625,83.927-631.894,85.423-972.1C438.788,1625.324,233.546,744.248,271.806.05" transform="translate(162.168 0.004)" fill="none" stroke="#000" stroke-miterlimit="10" stroke-width="1"/>
      <path id="패스_130-2" data-name="패스 130" d="M211.78,4145.614c39.792-610.123,106.965-942.539,147.451-1195.956,66.6-415.442,83.393-634.646,81.7-976.336C439.224,1627.242,220.023,750.35,259.245.05" transform="translate(164.883 0.004)" fill="none" stroke="#000" stroke-miterlimit="10" stroke-width="1"/>
      <path id="패스_131-2" data-name="패스 131" d="M215.27,4145.627c44.029-605.886,110.882-934.456,151.368-1187.691,66.907-417.233,82.823-637.4,77.963-980.567C439.652,1629.134,206.457,756.453,246.658.05" transform="translate(167.607 0.004)" fill="none" stroke="#000" stroke-miterlimit="10" stroke-width="1"/>
      <path id="패스_132-2" data-name="패스 132" d="M218.75,4145.625c48.266-601.681,114.8-926.381,155.267-1179.408,67.227-419.053,82.271-640.153,74.224-984.831C440.07,1631.019,192.917,762.544,234.061.06" transform="translate(170.323 0.008)" fill="none" stroke="#000" stroke-miterlimit="10" stroke-width="1"/>
      <path id="패스_133-2" data-name="패스 133" d="M224.588,4145.642c52.5-597.441,118.716-918.3,159.166-1171.139,67.548-420.843,81.7-642.877,70.485-989.059C442.827,1632.922,181.716,768.66,223.822.05" transform="translate(170.699 0.004)" fill="none" stroke="#000" stroke-miterlimit="10" stroke-width="1"/>
      <path id="패스_134-2" data-name="패스 134" d="M235.11,4145.641c56.741-593.233,122.633-910.217,163.065-1162.878,67.85-422.661,81.132-645.63,66.764-993.319C450.269,1634.818,175.2,774.739,218.285.05" transform="translate(166.39 0.004)" fill="none" stroke="#000" stroke-miterlimit="10" stroke-width="1"/>
      <path id="패스_135-2" data-name="패스 135" d="M245.631,4145.656c60.978-589,126.55-902.161,166.964-1154.614,68.171-424.453,80.562-648.357,63.026-997.552C457.71,1636.736,168.683,780.842,212.729.05" transform="translate(162.065 0.004)" fill="none" stroke="#000" stroke-miterlimit="10" stroke-width="1"/>
      <path id="패스_136-2" data-name="패스 136" d="M256.164,4145.669c65.2-584.787,130.466-894.079,170.863-1146.349,68.491-426.27,79.975-651.083,59.287-1001.783C465.146,1638.653,162.178,786.944,207.186.05" transform="translate(157.745 0.004)" fill="none" stroke="#000" stroke-miterlimit="10" stroke-width="1"/>
      <path id="패스_137-2" data-name="패스 137" d="M266.682,4145.669c69.435-580.552,134.383-886,174.762-1138.062,68.794-428.062,79.405-653.81,55.548-1006.043C472.583,1640.576,155.675,793.049,201.645.05" transform="translate(153.423 0.004)" fill="none" stroke="#000" stroke-miterlimit="10" stroke-width="1"/>
      <path id="패스_138-2" data-name="패스 138" d="M277.221,4145.683c73.672-576.342,138.3-877.918,178.679-1129.8,69.115-429.879,78.818-656.535,51.827-1010.274C480.006,1642.519,149.158,799.152,196.106.05" transform="translate(149.097 0.004)" fill="none" stroke="#000" stroke-miterlimit="10" stroke-width="1"/>
      <path id="패스_139-2" data-name="패스 139" d="M287.759,4145.683c77.91-572.134,142.2-869.839,182.578-1121.537,69.417-431.672,78.212-659.237,48.088-1014.509C487.447,1644.442,142.658,805.23,190.568.05" transform="translate(144.772 0.004)" fill="none" stroke="#000" stroke-miterlimit="10" stroke-width="1"/>
      <path id="패스_140-2" data-name="패스 140" d="M298.282,4145.7C380.429,3577.8,444.4,3283.94,484.759,3032.424c69.738-433.489,77.625-661.963,44.349-1018.766C494.872,1646.359,136.16,811.333,185.032.05" transform="translate(140.446 0.004)" fill="none" stroke="#000" stroke-miterlimit="10" stroke-width="1"/>
      <path id="패스_141-2" data-name="패스 141" d="M308.825,4145.711C395.209,3582.023,458.858,3292.035,499.2,3040.7c70.058-435.306,77.019-664.662,40.611-1023C502.282,1648.3,129.647,817.435,179.5.05" transform="translate(136.116 0.004)" fill="none" stroke="#000" stroke-miterlimit="10" stroke-width="1"/>
      <path id="패스_142-2" data-name="패스 142" d="M319.35,4145.711c90.622-559.453,153.95-845.6,194.276-1096.722,70.361-437.1,76.414-667.365,36.89-1027.232C509.709,1650.251,123.152,823.54,173.964.05" transform="translate(131.787 0.004)" fill="none" stroke="#000" stroke-miterlimit="10" stroke-width="1"/>
      <path id="패스_143-2" data-name="패스 143" d="M329.894,4145.724c94.841-555.243,157.867-837.515,198.175-1088.458,70.681-438.916,75.809-670.064,33.151-1031.489C517.119,1652.194,116.657,829.642,168.431.05" transform="translate(127.457 0.004)" fill="none" stroke="#000" stroke-miterlimit="10" stroke-width="1"/>
      <path id="패스_144-2" data-name="패스 144" d="M340.421,4145.739C439.5,3594.731,502.2,3316.3,542.494,3065.544c70.984-440.707,75.2-672.763,29.412-1035.72C524.548,1654.138,110.163,835.744,162.9.05" transform="translate(123.126 0.004)" fill="none" stroke="#000" stroke-miterlimit="10" stroke-width="1"/>
      <path id="패스_145-2" data-name="패스 145" d="M350.967,4145.739c103.316-546.8,165.7-821.355,205.99-1071.934,71.3-442.526,74.58-675.44,25.673-1039.955C531.961,1656.112,103.654,841.823,157.368.05" transform="translate(118.792 0.004)" fill="none" stroke="#000" stroke-miterlimit="10" stroke-width="1"/>
      <path id="패스_146-2" data-name="패스 146" d="M361.52,4145.752c107.553-542.563,169.617-813.273,209.89-1063.668,71.625-444.317,73.975-678.114,21.952-1044.213C539.363,1658.056,97.169,847.925,151.826.05" transform="translate(114.453 0.004)" fill="none" stroke="#000" stroke-miterlimit="10" stroke-width="1"/>
      <path id="패스_147-2" data-name="패스 147" d="M372.049,4145.752c111.79-538.354,173.534-805.22,213.788-1055.408,71.927-446.135,73.352-680.789,18.213-1048.447C546.776,1660.03,90.677,854.03,146.3.05" transform="translate(110.12 0.004)" fill="none" stroke="#000" stroke-miterlimit="10" stroke-width="1"/>
      <path id="패스_148-2" data-name="패스 148" d="M382.6,4145.766c116.028-534.145,177.451-797.139,217.688-1047.118,72.248-447.926,72.729-683.462,14.475-1052.677C554.174,1662,84.17,860.132,140.769.05" transform="translate(105.784 0.004)" fill="none" stroke="#000" stroke-miterlimit="10" stroke-width="1"/>
      <path id="패스_149-2" data-name="패스 149" d="M393.128,4145.78C513.375,3615.871,574.5,3356.722,614.715,3106.925c72.568-449.744,72.106-686.136,10.753-1056.935C561.588,1664,77.68,866.234,135.24.05" transform="translate(101.45 0.004)" fill="none" stroke="#000" stroke-miterlimit="10" stroke-width="1"/>
      <path id="패스_150-2" data-name="패스 150" d="M403.677,4145.78c124.484-525.7,185.285-780.979,225.486-1030.594,72.871-451.536,71.482-688.786,7.015-1061.169C568.986,1665.969,71.19,872.313,129.712.05" transform="translate(97.115 0.004)" fill="none" stroke="#000" stroke-miterlimit="10" stroke-width="1"/>
      <path id="패스_151-2" data-name="패스 151" d="M414.226,4145.794c128.722-521.465,189.2-772.9,229.385-1022.331,73.192-453.353,70.859-691.46,3.276-1065.4C576.384,1667.964,64.7,878.415,124.184.05" transform="translate(92.779 0.004)" fill="none" stroke="#000" stroke-miterlimit="10" stroke-width="1"/>
      <path id="패스_152-2" data-name="패스 152" d="M424.759,4145.794c132.959-517.257,193.118-764.819,233.3-1014.07,73.494-455.145,70.236-694.109-.463-1069.66C583.783,1669.965,58.2,884.52,118.658.05" transform="translate(88.442 0.004)" fill="none" stroke="#000" stroke-miterlimit="10" stroke-width="1"/>
      <path id="패스_153-2" data-name="패스 153" d="M435.309,4145.808c137.2-513.021,197.017-756.738,237.2-1005.78,73.815-456.963,69.613-696.757-4.184-1073.892C591.182,1671.96,51.708,890.622,113.131.05" transform="translate(84.105 0.004)" fill="none" stroke="#000" stroke-miterlimit="10" stroke-width="1"/>
      <path id="패스_154-2" data-name="패스 154" d="M445.842,4145.822c141.434-508.812,200.934-748.657,241.1-997.516,74.135-458.753,68.972-699.378-7.923-1078.123C598.581,1673.956,45.22,896.724,107.6.05" transform="translate(79.769 0.004)" fill="none" stroke="#000" stroke-miterlimit="10" stroke-width="1"/>
      <path id="패스_155-2" data-name="패스 155" d="M456.394,4145.822c145.671-504.577,204.851-740.578,245-989.256,74.438-460.572,68.349-702.028-11.661-1082.383C605.964,1675.982,38.716,902.8,102.079.05" transform="translate(75.43 0.004)" fill="none" stroke="#000" stroke-miterlimit="10" stroke-width="1"/>
      <path id="패스_156-2" data-name="패스 156" d="M466.945,4145.835c149.89-500.367,208.768-732.5,248.9-980.992,74.758-462.363,67.708-704.65-15.4-1086.614C613.364,1677.977,32.228,908.9,96.554.05" transform="translate(71.093 0.004)" fill="none" stroke="#000" stroke-miterlimit="10" stroke-width="1"/>
      <path id="패스_157-2" data-name="패스 157" d="M477.478,4145.849c154.128-496.157,212.685-724.416,252.8-972.728,75.079-464.18,67.067-707.271-19.121-1090.845C620.746,1680,25.742,915.006,91.028.05" transform="translate(66.755 0.004)" fill="none" stroke="#000" stroke-miterlimit="10" stroke-width="1"/>
      <path id="패스_158-2" data-name="패스 158" d="M488.03,4145.849c158.365-491.923,216.6-716.337,256.7-964.442,75.381-465.972,66.444-709.895-22.86-1095.105C628.146,1682.024,19.255,921.111,85.5.05" transform="translate(62.417 0.004)" fill="none" stroke="#000" stroke-miterlimit="10" stroke-width="1"/>
      <path id="패스_159-2" data-name="패스 159" d="M498.572,4145.864c162.6-487.714,220.518-708.283,260.613-956.179,75.7-467.789,65.8-712.517-26.6-1099.336C635.537,1684.046,12.759,927.213,79.968.05" transform="translate(58.071 0.004)" fill="none" stroke="#000" stroke-miterlimit="10" stroke-width="1"/>
      <path id="패스_160-2" data-name="패스 160" d="M509.124,4145.864c166.84-483.479,224.435-700.2,264.512-947.918,76-469.582,65.162-715.14-30.338-1103.571C642.92,1686.1,6.273,933.291,74.443.05" transform="translate(53.732 0.004)" fill="none" stroke="#000" stroke-miterlimit="10" stroke-width="1"/>
      <path id="패스_161-2" data-name="패스 161" d="M519.659,4145.877c171.077-479.27,228.352-692.122,268.411-939.654,76.325-471.4,64.521-717.736-34.059-1107.828C650.3,1688.119-.213,939.393,68.919.05" transform="translate(49.393 0.004)" fill="none" stroke="#000" stroke-miterlimit="10" stroke-width="1"/>
      <path id="패스_162-2" data-name="패스 162" d="M530.214,4145.891c175.314-475.034,232.269-684.042,272.31-931.391,76.645-473.19,63.471-720.124-37.8-1112.058C657.262,1690.4-6.714,945.495,63.4.05" transform="translate(45.052 0.004)" fill="none" stroke="#000" stroke-miterlimit="10" stroke-width="1"/>
      <path id="패스_163-2" data-name="패스 163" d="M540.766,4145.891c179.534-470.826,236.186-675.963,276.209-923.1,76.948-475.008,62.972-722.8-41.536-1116.293C664.788,1692.374-13.2,951.6,57.873.05" transform="translate(40.712 0.004)" fill="none" stroke="#000" stroke-miterlimit="10" stroke-width="1"/>
      <path id="패스_164-2" data-name="패스 164" d="M551.3,4145.9c183.771-466.59,240.1-667.882,280.108-914.841,77.269-476.8,62.474-725.447-45.275-1120.55C672.331,1694.344-19.686,957.7,52.348.05" transform="translate(36.374 0.004)" fill="none" stroke="#000" stroke-miterlimit="10" stroke-width="1"/>
      <path id="패스_165-2" data-name="패스 165" d="M561.854,4145.9c188.008-462.382,244.019-659.8,284.007-906.581,77.589-478.618,61.975-728.123-49-1124.784C679.858,1696.318-26.171,963.779,46.824.05" transform="translate(32.034 0.004)" fill="none" stroke="#000" stroke-miterlimit="10" stroke-width="1"/>
    </g>
  </g>
</svg>
