<svg width="1329" height="210" viewBox="0 0 1329 210" fill="none" xmlns="http://www.w3.org/2000/svg">
<path d="M103.4 -1.43051e-05L132.8 29.4V119.1L103.4 148.5H48.5V197.4H48.8L55.1 210H48.5H0.500001L6.8 197.4V12.6L0.500001 -1.43051e-05H103.4ZM48.8 106.5H86.3V42H48.8V106.5ZM302.675 -1.43051e-05L296.375 12.6V166.5V180.6L266.975 210H264.275H261.275H195.575L166.175 180.6V12.6L159.875 -1.43051e-05H214.475L208.175 12.6V168H254.375V12.6L248.075 -1.43051e-05H302.675ZM432.697 -1.43051e-05L462.097 29.4V81.3L438.397 105L462.097 128.7V184.2L436.297 210H329.797L336.097 197.4V12.6L329.797 -1.43051e-05H432.697ZM378.097 84H415.597V42H378.097V84ZM378.097 171.6H415.597V126H378.097V171.6ZM544.972 -1.43051e-05L537.472 15V168H600.472L613.072 161.7V210H543.772H489.172L495.472 197.4V12.6L489.172 -1.43051e-05H544.972ZM694.651 -1.43051e-05L688.351 12.6V197.4L694.651 210H640.051L646.351 197.4V12.6L640.051 -1.43051e-05H694.651ZM822.589 -1.43051e-05L851.989 29.4V60.6H809.989V42H763.789V83.7H816.589L851.989 119.1V180.6L822.589 210H751.189L721.789 180.6V148.2H763.789V168H809.989V125.7H757.189L721.789 90.6V29.4L751.189 -1.43051e-05H822.589ZM1014.41 -1.43051e-05L1008.11 12.6V79.5V121.5V197.4L1014.41 210H959.813L966.113 197.4V126H927.413V197.4L933.713 210H879.113L885.413 197.4V12.6L879.113 -1.43051e-05H933.713L927.413 12.6V79.5V84H966.113V12.6L959.813 -1.43051e-05H1014.41ZM1165.32 -1.43051e-05V48.3L1152.72 42H1089.72V84.3H1131.72L1144.32 78V132.6L1131.72 126.3H1089.72V168H1152.72L1165.32 161.7V210H1096.02H1041.42L1047.72 197.4V12.6L1041.42 -1.43051e-05H1165.32ZM1295.2 -1.43051e-05L1324.6 29.4V112.5L1298.8 138.3L1318.3 197.4L1328.8 210H1272.7L1273 197.4L1255.3 141.9H1240.6V197.4L1246.9 210H1192.3L1198.6 197.4V12.6L1192.3 -1.43051e-05H1295.2ZM1240.6 99.9H1282.6V42H1240.6V99.9Z" fill="white"/>
</svg>
