<svg width="40" height="40" viewBox="0 0 40 40" fill="none" xmlns="http://www.w3.org/2000/svg">
<g clip-path="url(#clip0_160_264)">
<path d="M7.08334 3.22406e-06H32.9167C33.8471 -0.000896211 34.7686 0.186404 35.6284 0.551183C36.4882 0.915963 37.2694 1.45106 37.9273 2.12585C38.5852 2.80065 39.1069 3.60189 39.4626 4.48372C39.8183 5.36555 40.0009 6.31066 40 7.26496V32.735C40.0009 33.6893 39.8183 34.6344 39.4626 35.5163C39.1069 36.3981 38.5852 37.1994 37.9273 37.8741C37.2694 38.5489 36.4882 39.084 35.6284 39.4488C34.7686 39.8136 33.8471 40.0009 32.9167 40H7.08334C6.15289 40.0009 5.23141 39.8136 4.37162 39.4488C3.51184 39.084 2.73063 38.5489 2.07271 37.8741C1.41478 37.1994 0.893064 36.3981 0.537404 35.5163C0.181743 34.6344 -0.000873806 33.6893 3.14346e-06 32.735V7.26496C-0.000873806 6.31066 0.181743 5.36555 0.537404 4.48372C0.893064 3.60189 1.41478 2.80065 2.07271 2.12585C2.73063 1.45106 3.51184 0.915963 4.37162 0.551183C5.23141 0.186404 6.15289 -0.000896211 7.08334 3.22406e-06Z" fill="#470137"/>
<path d="M20.8059 12.1014L15.8059 20.3514L21.1393 29.1014C21.1744 29.1617 21.1862 29.2329 21.1726 29.3014C21.1559 29.368 21.0893 29.318 20.9893 29.3347H17.1726C16.9059 29.3347 16.7226 29.318 16.6059 29.1514C16.2559 28.4514 15.8893 27.768 15.5393 27.068C15.1893 26.368 14.8059 25.6847 14.4059 24.968C14.0059 24.2514 13.6059 23.5347 13.2059 22.8014H13.1726C12.8226 23.518 12.4393 24.2347 12.0559 24.9514C11.6726 25.668 11.2893 26.3847 10.9226 27.0847C10.5559 27.7847 10.1559 28.5014 9.77259 29.1847C9.70593 29.3514 9.57259 29.368 9.38926 29.368H5.72259C5.65593 29.368 5.60592 29.4014 5.60592 29.318C5.59849 29.2868 5.59761 29.2544 5.60335 29.2229C5.60908 29.1913 5.62131 29.1613 5.63926 29.1347L10.8226 20.6347L5.77259 12.0847C5.72259 12.018 5.70592 11.9514 5.73926 11.918C5.75958 11.8943 5.78536 11.8758 5.81439 11.8642C5.84341 11.8526 5.87482 11.8482 5.90592 11.8514H9.68926C9.76809 11.8531 9.84643 11.8643 9.92259 11.8847C9.98936 11.9206 10.0465 11.9721 10.0893 12.0347C10.4059 12.7514 10.7726 13.468 11.1559 14.1847C11.5393 14.9014 11.9393 15.6014 12.3559 16.3014C12.7726 17.0014 13.1226 17.7014 13.4726 18.418H13.5059C13.8559 17.6847 14.2226 16.968 14.5893 16.268C14.9559 15.568 15.3393 14.868 15.7226 14.168C16.1059 13.468 16.4726 12.7514 16.8393 12.068C16.8519 12.0024 16.8873 11.9434 16.9393 11.9014C17.0053 11.8649 17.082 11.8531 17.1559 11.868H20.6726C20.6923 11.8636 20.7127 11.8631 20.7326 11.8666C20.7525 11.8701 20.7715 11.8774 20.7885 11.8883C20.8055 11.8991 20.8203 11.9132 20.8318 11.9298C20.8434 11.9463 20.8516 11.965 20.8559 11.9847C20.8726 12.0014 20.8393 12.068 20.8059 12.1014Z" fill="#FF61F6"/>
<path d="M28.5056 29.6846C27.2702 29.7049 26.0458 29.4486 24.9223 28.9346C23.8769 28.4457 23.0007 27.6567 22.4056 26.6679C21.7889 25.6513 21.4889 24.3846 21.4889 22.8679C21.472 21.6345 21.7888 20.4195 22.4056 19.3513C23.0381 18.2656 23.9542 17.3726 25.0556 16.7679C26.2223 16.1179 27.6223 15.8013 29.2723 15.8013C29.3891 15.7999 29.506 15.8055 29.6223 15.8179C29.7723 15.8346 29.9389 15.8346 30.1389 15.8513V10.5846C30.1389 10.4679 30.1889 10.4013 30.3056 10.4013H33.6889C33.7263 10.3962 33.7642 10.4054 33.7951 10.427C33.8259 10.4486 33.8476 10.4811 33.8556 10.5179V26.4179C33.8556 26.7179 33.8723 27.0513 33.8889 27.4179C33.9056 27.7846 33.9389 28.1013 33.9556 28.3846C33.9591 28.4409 33.945 28.4969 33.9151 28.5447C33.8852 28.5925 33.8411 28.6298 33.7889 28.6513C32.9159 29.0182 32.0048 29.2865 31.0723 29.4513C30.2252 29.604 29.3663 29.6821 28.5056 29.6846ZM30.1389 26.3513V19.0179C29.9905 18.9821 29.8403 18.9543 29.6889 18.9346C29.5056 18.9179 29.3223 18.9013 29.1389 18.9013C28.4856 18.8939 27.84 19.0425 27.2556 19.3346C26.6861 19.6184 26.1984 20.0429 25.8389 20.5679C25.4723 21.1013 25.2889 21.8179 25.2889 22.6846C25.2744 23.2696 25.3705 23.852 25.5723 24.4013C25.7334 24.8454 25.9894 25.2492 26.3223 25.5846C26.6436 25.8912 27.0315 26.1194 27.4556 26.2513C27.902 26.3975 28.3692 26.4706 28.8389 26.4679C29.0889 26.4679 29.3223 26.4513 29.5389 26.4346C29.7426 26.4491 29.947 26.4207 30.1389 26.3513Z" fill="#FF61F6"/>
</g>
<defs>
<clipPath id="clip0_160_264">
<rect width="40" height="40" fill="white"/>
</clipPath>
</defs>
</svg>
